<svg xmlns="http://www.w3.org/2000/svg" width="750" height="192" viewBox="0 0 750 192"><rect width="100%" height="100%" fill="#DDDDDD"/><path fill="#999999" d="M161.235 61.295h47.95v5.14q0 2.3-.48 3.72-.48 1.41-.96 2.37l-26.31 54.15q-.81 1.68-2.3 2.85-1.49 1.18-3.98 1.18h-8.6l26.84-53.04q.91-1.63 1.8-3 .88-1.37 1.99-2.62h-33.22q-1.1 0-1.92-.81-.81-.82-.81-1.92v-8.02Zm73.15 10.75-2.45 14.45q2.3-.48 4.42-.69 2.11-.22 4.08-.22 5.47 0 9.64 1.63 4.18 1.63 7.01 4.51t4.27 6.75q1.44 3.86 1.44 8.33 0 5.52-1.94 10.08-1.94 4.56-5.4 7.8-3.46 3.24-8.18 5.01-4.73 1.78-10.3 1.78-3.26 0-6.19-.67-2.93-.68-5.5-1.8-2.57-1.13-4.75-2.6-2.18-1.46-3.91-3.09l3.65-5.04q1.15-1.63 3.02-1.63 1.2 0 2.45.76 1.25.77 2.85 1.68 1.61.92 3.8 1.68 2.18.77 5.25.77 3.27 0 5.76-1.05 2.5-1.06 4.15-2.96 1.66-1.89 2.5-4.51.84-2.61.84-5.69 0-5.66-3.29-8.85-3.29-3.19-9.72-3.19-4.94 0-10.13 1.82l-7.39-2.11 5.76-33.7h34.27v5.04q0 2.55-1.58 4.13t-5.38 1.58h-19.05Zm87.02 23.96q0 9.07-1.94 15.76-1.95 6.7-5.38 11.07-3.43 4.37-8.11 6.5-4.68 2.14-10.1 2.14-5.43 0-10.06-2.14-4.63-2.13-8.04-6.5-3.41-4.37-5.33-11.07-1.92-6.69-1.92-15.76 0-9.12 1.92-15.8 1.92-6.67 5.33-11.04 3.41-4.36 8.04-6.5 4.63-2.14 10.06-2.14 5.42 0 10.1 2.14t8.11 6.5q3.43 4.37 5.38 11.04 1.94 6.68 1.94 15.8Zm-12.24 0q0-7.54-1.1-12.48-1.11-4.95-2.95-7.88-1.85-2.92-4.25-4.1-2.4-1.18-4.99-1.18-2.55 0-4.92 1.18-2.38 1.18-4.2 4.1-1.83 2.93-2.91 7.88-1.08 4.94-1.08 12.48 0 7.53 1.08 12.48 1.08 4.94 2.91 7.87 1.82 2.93 4.2 4.1 2.37 1.18 4.92 1.18 2.59 0 4.99-1.18 2.4-1.17 4.25-4.1 1.84-2.93 2.95-7.87 1.1-4.95 1.1-12.48Zm88.47 18.81-6.29 6.19-16.27-16.27-16.42 16.37-6.29-6.19 16.42-16.47-15.65-15.64 6.24-6.24 15.65 15.64 15.55-15.55 6.34 6.24-15.6 15.6 16.32 16.32Zm65.71 7.01h12.48v8.88h-38.4v-8.88h14.06v-40.46q0-2.4.15-4.95l-9.99 8.35q-.86.68-1.7.84-.84.17-1.59.03-.74-.15-1.32-.51-.57-.36-.86-.79l-3.74-5.13 21.16-18h9.75v60.62Zm34.32-39.7q0 5.81 3 8.86t8.52 3.05q2.88 0 5.13-.91 2.26-.92 3.8-2.5 1.53-1.58 2.32-3.74.8-2.16.8-4.66 0-2.83-.87-5.06-.86-2.24-2.45-3.77-1.58-1.54-3.76-2.35-2.19-.82-4.78-.82-2.69 0-4.85.89-2.16.89-3.69 2.47-1.54 1.58-2.36 3.77-.81 2.18-.81 4.77Zm-5.81 48.58 21.55-26.93q.82-1.01 1.54-1.97.72-.96 1.39-1.92-2.4 1.54-5.28 2.33-2.88.79-6.05.79-3.6 0-7.05-1.24-3.46-1.25-6.15-3.77-2.69-2.52-4.34-6.24-1.66-3.72-1.66-8.71 0-4.66 1.73-8.74t4.85-7.15q3.12-3.07 7.49-4.85 4.36-1.78 9.64-1.78 5.33 0 9.58 1.68t7.25 4.71q3 3.02 4.61 7.25 1.6 4.22 1.6 9.26 0 3.22-.55 6.1-.55 2.88-1.56 5.54t-2.45 5.21q-1.44 2.54-3.21 5.04l-15.89 22.65q-.82 1.16-2.45 1.95-1.63.79-3.69.79h-10.9Zm74.93-11.04h17.81q1.92 0 3.04 1.08 1.13 1.08 1.13 2.86v7.1h-47.61v-3.94q0-1.2.5-2.52t1.61-2.37l21.07-21.12q2.64-2.69 4.73-5.14 2.09-2.45 3.48-4.85 1.39-2.4 2.13-4.87.75-2.47.75-5.21 0-2.49-.72-4.39-.72-1.89-2.04-3.19t-3.17-1.94q-1.85-.65-4.15-.65-2.11 0-3.91.6-1.8.6-3.2 1.68-1.39 1.08-2.35 2.52-.96 1.44-1.44 3.17-.81 2.2-2.11 2.92-1.3.72-3.74.34l-6.24-1.1q.72-5 2.78-8.76 2.06-3.77 5.16-6.29t7.1-3.79q4.01-1.28 8.62-1.28 4.8 0 8.78 1.42 3.99 1.42 6.82 4.01t4.42 6.24q1.58 3.65 1.58 8.11 0 3.84-1.13 7.1-1.13 3.27-3.02 6.24-1.9 2.98-4.44 5.76-2.55 2.79-5.33 5.67l-15.65 15.98q2.26-.67 4.49-1.03 2.23-.36 4.25-.36Z"/></svg>